<?xml version="1.0" encoding="UTF-8"?>
<svg xmlns="http://www.w3.org/2000/svg" version="1.1" width="500" height="500" style="background-color:transparent;">
  <path d="M0 0 C165 0 330 0 500 0 C500 165 500 330 500 500 C335 500 170 500 0 500 C0 335 0 170 0 0 Z " fill="#FEFEFE" transform="translate(0,0)"/>
  <path d="M0 0 C3.04851754 0.52276023 4.39232171 1.90606308 6.1640625 4.37109375 C6.8034375 3.71109375 7.4428125 3.05109375 8.1015625 2.37109375 C12.20166152 -0.30652194 15.38874901 -0.35955531 20.1640625 0.37109375 C22.9765625 1.68359375 22.9765625 1.68359375 25.1640625 3.37109375 C25.9271875 3.92796875 26.6903125 4.48484375 27.4765625 5.05859375 C28.0334375 5.49171875 28.5903125 5.92484375 29.1640625 6.37109375 C30.1128125 5.56671875 31.0615625 4.76234375 32.0390625 3.93359375 C36.13781884 0.4585612 39.11746553 -0.15983646 44.48828125 -0.09765625 C49.24313484 0.7353108 52.36531461 3.54463012 55.1640625 7.37109375 C58.737175 14.50089065 58.61496305 21.25273677 58.5390625 29.12109375 C58.55066406 30.33925781 58.56226563 31.55742187 58.57421875 32.8125 C58.57035156 33.98167969 58.56648438 35.15085938 58.5625 36.35546875 C58.55911621 37.41475586 58.55573242 38.47404297 58.55224609 39.56542969 C58.11512196 42.72481998 57.38021973 44.10894709 55.1640625 46.37109375 C52.7890625 46.90234375 52.7890625 46.90234375 50.1640625 46.87109375 C49.2978125 46.88140625 48.4315625 46.89171875 47.5390625 46.90234375 C45.1640625 46.37109375 45.1640625 46.37109375 43.54321289 44.68603516 C41.86275467 41.86534037 41.76791346 40.06959852 41.72265625 36.80078125 C41.69623047 35.73988281 41.66980469 34.67898437 41.64257812 33.5859375 C41.62904297 32.48378906 41.61550781 31.38164062 41.6015625 30.24609375 C41.5672205 28.05583733 41.5246699 25.86568927 41.47265625 23.67578125 C41.46032959 22.70624512 41.44800293 21.73670898 41.43530273 20.73779297 C41.39113157 18.18349892 41.39113157 18.18349892 39.1640625 16.37109375 C35.85722784 16.66092644 35.85722784 16.66092644 33.1640625 18.37109375 C33.04276788 20.10395451 32.98441903 21.84130622 32.953125 23.578125 C32.91058594 25.17043945 32.91058594 25.17043945 32.8671875 26.79492188 C32.81537805 29.04215656 32.77102667 31.28957637 32.734375 33.53710938 C32.68796875 35.13522461 32.68796875 35.13522461 32.640625 36.765625 C32.62080566 37.74378174 32.60098633 38.72193848 32.58056641 39.72973633 C32.10153495 42.76762692 31.28238649 44.16873972 29.1640625 46.37109375 C26.7890625 46.90234375 26.7890625 46.90234375 24.1640625 46.87109375 C23.2978125 46.88140625 22.4315625 46.89171875 21.5390625 46.90234375 C19.1640625 46.37109375 19.1640625 46.37109375 17.54321289 44.68603516 C15.86275467 41.86534037 15.76791346 40.06959852 15.72265625 36.80078125 C15.69623047 35.73988281 15.66980469 34.67898437 15.64257812 33.5859375 C15.62904297 32.48378906 15.61550781 31.38164062 15.6015625 30.24609375 C15.5672205 28.05583733 15.5246699 25.86568927 15.47265625 23.67578125 C15.46032959 22.70624512 15.44800293 21.73670898 15.43530273 20.73779297 C15.39113157 18.18349892 15.39113157 18.18349892 13.1640625 16.37109375 C9.85722784 16.66092644 9.85722784 16.66092644 7.1640625 18.37109375 C7.04276788 20.10395451 6.98441903 21.84130622 6.953125 23.578125 C6.91058594 25.17043945 6.91058594 25.17043945 6.8671875 26.79492188 C6.81537805 29.04215656 6.77102667 31.28957637 6.734375 33.53710938 C6.68796875 35.13522461 6.68796875 35.13522461 6.640625 36.765625 C6.62080566 37.74378174 6.60098633 38.72193848 6.58056641 39.72973633 C6.10153495 42.76762692 5.28238649 44.16873972 3.1640625 46.37109375 C0.7890625 46.90234375 0.7890625 46.90234375 -1.8359375 46.87109375 C-2.7021875 46.88140625 -3.5684375 46.89171875 -4.4609375 46.90234375 C-6.8359375 46.37109375 -6.8359375 46.37109375 -8.45947266 44.88891602 C-10.4983794 41.15935851 -10.26526592 37.74127785 -10.234375 33.5546875 C-10.23724518 32.70181656 -10.24011536 31.84894562 -10.24307251 30.9702301 C-10.24511073 29.1706577 -10.23959778 27.37106302 -10.22705078 25.5715332 C-10.21097349 22.81476466 -10.2269174 20.05945779 -10.24609375 17.30273438 C-10.24411166 15.55338218 -10.2402687 13.80403089 -10.234375 12.0546875 C-10.24044769 11.22964218 -10.24652039 10.40459686 -10.2527771 9.55455017 C-10.18185479 3.79711673 -10.18185479 3.79711673 -8.44424438 1.65711975 C-5.79066186 -0.46472413 -3.27571069 -0.09069557 0 0 Z " fill="#FF6D36" transform="translate(177.8359375,198.62890625)"/>
  <path d="M0 0 C3.06953387 0.5673263 4.84628001 2.20956126 7.0078125 4.37109375 C7.6678125 3.71109375 8.3278125 3.05109375 9.0078125 2.37109375 C12.74207967 -0.1184177 15.69272424 -0.32979143 20.0078125 0.37109375 C23.47673508 1.65587989 25.40312886 2.40909705 27.3828125 5.55859375 C27.5890625 6.15671875 27.7953125 6.75484375 28.0078125 7.37109375 C28.6678125 7.37109375 29.3278125 7.37109375 30.0078125 7.37109375 C30.3378125 6.38109375 30.6678125 5.39109375 31.0078125 4.37109375 C35.20287609 0.70041311 38.42827135 -0.22167723 43.83203125 0.05078125 C48.36468604 0.71806616 51.14679762 2.46224471 54.2578125 5.74609375 C57.53117891 10.65614337 58.25815759 14.4599821 58.23828125 20.3515625 C58.23782303 21.00562576 58.23736481 21.65968903 58.2368927 22.33357239 C58.23388624 23.70767038 58.22604835 25.08176545 58.21362305 26.45581055 C58.19527884 28.56245934 58.19311421 30.66866999 58.19335938 32.77539062 C58.15553753 43.0756437 58.15553753 43.0756437 57.0078125 45.37109375 C54.39453765 46.24218537 52.70070079 46.55989174 50.0078125 46.62109375 C49.3271875 46.646875 48.6465625 46.67265625 47.9453125 46.69921875 C45.33921902 46.25786421 44.61765476 45.45346566 43.0078125 43.37109375 C42.60717773 40.875 42.60717773 40.875 42.56640625 37.93359375 C42.53998047 36.87398437 42.51355469 35.814375 42.48632812 34.72265625 C42.47279297 33.61664063 42.45925781 32.510625 42.4453125 31.37109375 C42.41089141 29.18344255 42.36829491 26.99590034 42.31640625 24.80859375 C42.30407959 23.83792969 42.29175293 22.86726563 42.27905273 21.8671875 C42.175017 19.12186899 42.175017 19.12186899 40.0078125 16.37109375 C37.5078125 15.87109375 37.5078125 15.87109375 35.0078125 16.37109375 C32.78601281 19.70379328 32.72899337 20.94099606 32.62890625 24.84375 C32.59474609 25.90787109 32.56058594 26.97199219 32.52539062 28.06835938 C32.49896484 29.17888672 32.47253906 30.28941406 32.4453125 31.43359375 C32.38552731 33.63292536 32.32191942 35.83215745 32.25390625 38.03125 C32.22997803 39.00715088 32.2060498 39.98305176 32.18139648 40.98852539 C32.0078125 43.37109375 32.0078125 43.37109375 31.0078125 45.37109375 C28.39453765 46.24218537 26.70070079 46.55989174 24.0078125 46.62109375 C23.3271875 46.646875 22.6465625 46.67265625 21.9453125 46.69921875 C19.33909923 46.25784392 18.61614403 45.45476666 17.0078125 43.37109375 C16.62304688 40.875 16.62304688 40.875 16.6015625 37.93359375 C16.57964844 36.87398437 16.55773437 35.814375 16.53515625 34.72265625 C16.51692708 32.48828125 16.49869792 30.25390625 16.48046875 28.01953125 C16.45855469 26.95992187 16.43664062 25.9003125 16.4140625 24.80859375 C16.40697266 23.83792969 16.39988281 22.86726563 16.39257812 21.8671875 C16.19880023 19.3316717 16.19880023 19.3316717 14.64648438 17.51953125 C12.98128506 16.09560233 12.98128506 16.09560233 10.3828125 16.55859375 C7.84229247 17.11753609 7.84229247 17.11753609 7.0078125 19.37109375 C6.89015391 21.14853992 6.82892886 22.92988978 6.796875 24.7109375 C6.76851563 25.77376953 6.74015625 26.83660156 6.7109375 27.93164062 C6.65894836 30.17887116 6.61464908 32.42629305 6.578125 34.67382812 C6.53171875 36.27000977 6.53171875 36.27000977 6.484375 37.8984375 C6.46455566 38.87546631 6.44473633 39.85249512 6.42431641 40.85913086 C5.94625777 43.74233444 5.33391351 44.65677075 3.0078125 46.37109375 C0.8515625 46.76953125 0.8515625 46.76953125 -1.4921875 46.74609375 C-2.65234375 46.75769531 -2.65234375 46.75769531 -3.8359375 46.76953125 C-6.53403061 46.27097057 -7.28620629 45.48641902 -8.9921875 43.37109375 C-9.29066743 40.3224685 -9.41240595 37.4824928 -9.390625 34.43359375 C-9.39349518 33.55711182 -9.39636536 32.68062988 -9.39932251 31.77758789 C-9.40136348 29.92496087 -9.39583128 28.07231233 -9.38330078 26.21972656 C-9.36724734 23.38167196 -9.38314805 20.54504148 -9.40234375 17.70703125 C-9.40036132 15.90754894 -9.39651766 14.10806751 -9.390625 12.30859375 C-9.39669769 11.4585376 -9.40277039 10.60848145 -9.4090271 9.73266602 C-9.33852304 3.83585327 -9.33852304 3.83585327 -7.71011353 1.65063477 C-5.27829395 -0.16062652 -2.95751347 -0.09276334 0 0 Z " fill="#FF6A32" transform="translate(251.9921875,198.62890625)"/>
  <path d="M0 0 C0.99 0.495 1.98 0.99 3 1.5 C3.60328125 0.76716797 3.60328125 0.76716797 4.21875 0.01953125 C6.46091008 -1.89318864 7.59237801 -1.87549848 10.5 -1.8125 C11.2734375 -1.80863281 12.046875 -1.80476562 12.84375 -1.80078125 C15 -1.5 15 -1.5 18 0.5 C18.38095093 2.3215332 18.38095093 2.3215332 18.38818359 4.55078125 C18.39764008 5.38504639 18.40709656 6.21931152 18.4168396 7.07885742 C18.41076691 7.98095947 18.40469421 8.88306152 18.3984375 9.8125 C18.40130768 10.73716064 18.40417786 11.66182129 18.40713501 12.61450195 C18.40917849 14.57145804 18.40362882 16.52843443 18.39111328 18.48535156 C18.37506364 21.48809293 18.39095237 24.48948821 18.41015625 27.4921875 C18.40817387 29.39062798 18.4043303 31.28906763 18.3984375 33.1875 C18.40754654 34.54065308 18.40754654 34.54065308 18.4168396 35.92114258 C18.40738312 36.75540771 18.39792664 37.58967285 18.38818359 38.44921875 C18.38579681 39.18487061 18.38341003 39.92052246 18.38095093 40.6784668 C18 42.5 18 42.5 15 44.5 C12.73828125 44.6953125 12.73828125 44.6953125 10.3125 44.625 C9.50425781 44.60695312 8.69601562 44.58890625 7.86328125 44.5703125 C7.24839844 44.54710937 6.63351562 44.52390625 6 44.5 C5.34 43.18 4.68 41.86 4 40.5 C3.5153125 40.78875 3.030625 41.0775 2.53125 41.375 C-2.33044623 44.06763176 -6.43364999 45.73456012 -12 44.5 C-18.8594209 41.57503939 -24.06110488 36.37779025 -27.375 29.75 C-28.7276807 22.71606036 -29.13876295 15.79779233 -25.4765625 9.421875 C-18.93291824 0.90475073 -10.64285943 -4.58594756 0 0 Z " fill="#FF6B34" transform="translate(344,200.5)"/>
  <path d="M0 0 C-0.825 0.598125 -1.65 1.19625 -2.5 1.8125 C-3.7375 2.8953125 -3.7375 2.8953125 -5 4 C-5 4.99 -5 5.98 -5 7 C-4.38125 6.34 -3.7625 5.68 -3.125 5 C1.39567104 2.10677054 4.69182397 2.71689728 10 3 C10.99 5.97 11.98 8.94 13 12 C13.66 12 14.32 12 15 12 C14.01 9.03 13.02 6.06 12 3 C14.76276177 3.52268466 17.3260876 4.10869587 20 5 C18.68 4.01 17.36 3.02 16 2 C21.02346252 2.478425 24.10192881 3.77985423 28 7 C31.24440651 10.94535854 32.64124049 14.68306569 32.30859375 19.89453125 C31.22675924 27.27565531 29.08465787 31.64827569 23.328125 36.4921875 C14.55596734 42.17348424 4.74965032 42.36784228 -5.23828125 40.34375 C-13.05961367 37.83400018 -17.97757994 33.34529509 -22.4375 26.5625 C-24.21876764 22.50120977 -24.92395724 19.31711056 -24 15 C-21.3628617 8.45038603 -17.95493544 4.19718635 -11.75 0.75 C-7.82577447 -0.32024333 -4.04183205 -0.15850322 0 0 Z " fill="#E15206" transform="translate(126,205)"/>
  <path d="M0 0 C1.73189575 -0.00945648 1.73189575 -0.00945648 3.4987793 -0.019104 C4.75086182 -0.01505554 6.00294434 -0.01100708 7.29296875 -0.00683594 C8.57276611 -0.00874939 9.85256348 -0.01066284 11.17114258 -0.01263428 C13.88139668 -0.01558475 16.59151902 -0.01129049 19.30175781 -0.00195312 C22.77896106 0.00944154 26.25585557 0.00288163 29.73304749 -0.00909805 C33.04471279 -0.01805519 36.35629466 -0.01178729 39.66796875 -0.00683594 C41.54609253 -0.01290863 41.54609253 -0.01290863 43.4621582 -0.019104 C44.61675537 -0.01279968 45.77135254 -0.00649536 46.9609375 0 C47.98082764 0.00159119 49.00071777 0.00318237 50.05151367 0.00482178 C52.48046875 0.25878906 52.48046875 0.25878906 54.48046875 2.25878906 C55.02175315 7.9422753 55.02175315 7.9422753 54.48046875 10.25878906 C52.64057699 12.34773394 51.14232971 13.18353559 48.37094116 13.49864197 C45.81790443 13.55427897 43.28301154 13.51981134 40.73046875 13.44628906 C39.84230469 13.43275391 38.95414063 13.41921875 38.0390625 13.40527344 C35.85224297 13.37000215 33.66666909 13.32071659 31.48046875 13.25878906 C31.48713058 13.8387262 31.49379242 14.41866333 31.50065613 15.01617432 C31.56701195 21.0506028 31.61227034 27.08492769 31.64526367 33.11962891 C31.6603527 35.37195037 31.6808263 37.62424245 31.70678711 39.87646484 C31.74316468 43.11335502 31.76019405 46.34985681 31.7734375 49.58691406 C31.78892136 50.59433655 31.80440521 51.60175903 31.82035828 52.63970947 C31.82058487 53.58038269 31.82081146 54.52105591 31.82104492 55.49023438 C31.82770676 56.31630188 31.83436859 57.14236938 31.8412323 57.99346924 C31.39177342 60.81572804 30.42146165 62.18894512 28.48046875 64.25878906 C26.10546875 64.79003906 26.10546875 64.79003906 23.48046875 64.75878906 C22.18109375 64.77425781 22.18109375 64.77425781 20.85546875 64.79003906 C18.48046875 64.25878906 18.48046875 64.25878906 16.85331726 62.52362061 C15.27030213 59.91207056 15.11547369 58.5181759 15.13989258 55.49023438 C15.14011917 54.54956116 15.14034576 53.60888794 15.14057922 52.63970947 C15.15606308 51.63228699 15.17154694 50.6248645 15.1875 49.58691406 C15.19174484 48.54935974 15.19598969 47.51180542 15.20036316 46.44281006 C15.21714652 43.13120499 15.25479883 39.82020999 15.29296875 36.50878906 C15.308016 34.26270411 15.32170433 32.0166096 15.33398438 29.77050781 C15.36704889 24.26639365 15.41724515 18.76263495 15.48046875 13.25878906 C14.64854004 13.29020996 14.64854004 13.29020996 13.79980469 13.32226562 C11.27687852 13.40562454 8.75424226 13.45750774 6.23046875 13.50878906 C4.92142578 13.5590625 4.92142578 13.5590625 3.5859375 13.61035156 C-2.86893532 13.70889924 -2.86893532 13.70889924 -6.10546875 11.46972656 C-8.13241149 8.30052879 -7.92798464 5.93486953 -7.51953125 2.25878906 C-4.87937314 -0.38136905 -3.68330616 0.00574653 0 0 Z " fill="#FF6F3A" transform="translate(58.51953125,181.7412109375)"/>
  <path d="M0 0 C0.76183594 -0.00773438 1.52367187 -0.01546875 2.30859375 -0.0234375 C5.19293724 0.48644644 6.45062248 1.34756489 8.5625 3.375 C9.07666016 5.88696289 9.07666016 5.88696289 9.1015625 8.84765625 C9.12476563 9.91177734 9.14796875 10.97589844 9.171875 12.07226562 C9.17703125 13.18279297 9.1821875 14.29332031 9.1875 15.4375 C9.21294051 17.63683217 9.2463881 19.83609097 9.2890625 22.03515625 C9.29800537 23.49900757 9.29800537 23.49900757 9.30712891 24.99243164 C9.3303422 27.56132318 9.3303422 27.56132318 11.5625 29.375 C13.47430549 29.65505058 13.47430549 29.65505058 15.5625 29.5625 C16.26375 29.55605469 16.965 29.54960937 17.6875 29.54296875 C19.65306373 29.48206133 19.65306373 29.48206133 21.5625 28.375 C22.53849146 25.44702563 22.71293238 23.43023088 22.7734375 20.375 C22.81597656 18.9209375 22.81597656 18.9209375 22.859375 17.4375 C22.91145363 15.39601757 22.95572641 13.35432107 22.9921875 11.3125 C23.023125 10.343125 23.0540625 9.37375 23.0859375 8.375 C23.10575684 7.488125 23.12557617 6.60125 23.14599609 5.6875 C23.64028552 2.94312167 24.35924052 2.03632602 26.5625 0.375 C28.71875 0.01171875 28.71875 0.01171875 31.0625 0.0625 C31.8359375 0.06636719 32.609375 0.07023438 33.40625 0.07421875 C35.5625 0.375 35.5625 0.375 38.5625 2.375 C38.86640136 5.46198797 38.98232496 8.34455928 38.9609375 11.43359375 C38.96380768 12.33368668 38.96667786 13.2337796 38.96963501 14.16114807 C38.97167859 16.06682971 38.96612823 17.97253219 38.95361328 19.87817383 C38.93758229 22.79751511 38.95344224 25.71546796 38.97265625 28.63476562 C38.9706735 30.48437806 38.96682918 32.33398963 38.9609375 34.18359375 C38.97004654 35.49619423 38.97004654 35.49619423 38.9793396 36.83531189 C38.96988312 37.64948074 38.96042664 38.4636496 38.95068359 39.30249023 C38.94829681 40.01815659 38.94591003 40.73382294 38.94345093 41.47117615 C38.44996505 43.93739979 37.51156213 44.83281074 35.5625 46.375 C32.51809856 46.99733621 29.62061771 46.89940647 26.5625 46.375 C24 44.375 24 44.375 22.5625 42.375 C21.7375 43.035 20.9125 43.695 20.0625 44.375 C16.35351231 46.81283228 12.88714248 47.15538661 8.5625 46.375 C1.96119343 44.38964464 -2.11161583 40.32769714 -5.4375 34.375 C-7.84724305 28.07563248 -7.76903757 22.35445613 -7.75 15.6875 C-7.76611328 14.54732422 -7.78222656 13.40714844 -7.79882812 12.23242188 C-7.79947266 11.14123047 -7.80011719 10.05003906 -7.80078125 8.92578125 C-7.80376221 7.93231689 -7.80674316 6.93885254 -7.80981445 5.9152832 C-7.4375 3.375 -7.4375 3.375 -6.04736328 1.55297852 C-3.93797582 0.00948527 -2.5956322 -0.02626272 0 0 Z " fill="#FF6C35" transform="translate(404.4375,198.625)"/>
  <path d="M0 0 C0.76441406 -0.0103125 1.52882813 -0.020625 2.31640625 -0.03125 C5.25458592 0.70464767 5.88001438 1.9470591 7.4375 4.5 C7.79826355 6.84124756 7.79826355 6.84124756 7.77807617 9.45214844 C7.77784958 10.43286316 7.77762299 11.41357788 7.77738953 12.42401123 C7.76190567 13.47518127 7.74642181 14.52635132 7.73046875 15.609375 C7.72622391 16.69132141 7.72197906 17.77326782 7.71760559 18.88800049 C7.70081845 22.3422539 7.66316527 25.79592304 7.625 29.25 C7.60995325 31.59243949 7.59626483 33.93488813 7.58398438 36.27734375 C7.55091481 42.01842838 7.50071466 47.75917245 7.4375 53.5 C8.38625 53.45875 9.335 53.4175 10.3125 53.375 C13.4375 53.5 13.4375 53.5 15.4375 55.5 C15.703125 58.03125 15.703125 58.03125 15.6875 61 C15.69265625 61.9796875 15.6978125 62.959375 15.703125 63.96875 C15.4375 66.5 15.4375 66.5 13.4375 68.5 C7.98303253 69.14790636 1.56884536 69.80233596 -3.25 66.75 C-8.35206807 61.78582566 -8.58294517 56.18417235 -8.73950195 49.29248047 C-8.76625119 47.23412193 -8.78630186 45.17566891 -8.80078125 43.1171875 C-8.808853 42.02536163 -8.81692474 40.93353577 -8.82524109 39.80862427 C-8.83903349 37.50736051 -8.84977716 35.20607672 -8.85766602 32.90478516 C-8.86923989 30.54795352 -8.88977569 28.19114916 -8.91918945 25.83447266 C-8.96168658 22.42852984 -8.97800529 19.02336185 -8.98828125 15.6171875 C-9.00578934 14.562966 -9.02329742 13.50874451 -9.04133606 12.4225769 C-9.0196415 5.14523002 -9.0196415 5.14523002 -6.67675781 1.83837891 C-4.24814018 0.30100225 -2.86084786 -0.03872552 0 0 Z " fill="#FF6E38" transform="translate(377.5625,176.5)"/>
  <path d="M0 0 C0.99 0 1.98 0 3 0 C3 1.98 3 3.96 3 6 C3.95261719 5.95359375 4.90523437 5.9071875 5.88671875 5.859375 C7.14097656 5.82328125 8.39523438 5.7871875 9.6875 5.75 C10.92886719 5.70359375 12.17023438 5.6571875 13.44921875 5.609375 C18.62816771 6.17911636 20.68772838 8.50243664 24.01953125 12.3046875 C28.51695557 18.75197553 30.04847989 23.87378769 29.6171875 31.7578125 C28.67184237 36.72386605 26.68922121 39.62909655 23 43 C22.45859375 43.50144531 21.9171875 44.00289062 21.359375 44.51953125 C13.45362538 50.92909929 2.72100965 50.94509816 -7 50 C-10.2282675 49.00524315 -13.03264044 47.58987363 -16 46 C-17.98928343 45.30200581 -19.98504093 44.61998741 -22 44 C-22 43.34 -22 42.68 -22 42 C-22.66 42 -23.32 42 -24 42 C-24.103125 41.360625 -24.20625 40.72125 -24.3125 40.0625 C-24.539375 39.381875 -24.76625 38.70125 -25 38 C-25.99 37.67 -26.98 37.34 -28 37 C-27.67 35.68 -27.34 34.36 -27 33 C-26.55011719 33.60328125 -26.10023437 34.2065625 -25.63671875 34.828125 C-20.53693517 41.16452945 -16.05613679 44.50118385 -8 46 C1.47241287 46.98414679 10.04388321 46.93973356 18 41 C23.36317368 36.36295672 24.67647441 30.91173033 25.4375 24.0625 C25.29635656 19.23539431 23.24840458 15.5086127 20 12 C16.86829233 10.42291171 16.86829233 10.42291171 14 10 C14.99 10.99 15.98 11.98 17 13 C13.27566618 11.7874262 9.62197194 10.49140021 6 9 C6.495 9.7425 6.99 10.485 7.5 11.25 C9 14 9 14 9 18 C8.34 18 7.68 18 7 18 C6.01 15.03 5.02 12.06 4 9 C-3.47806476 9.30731773 -7.28260192 10.15264076 -13 15 C-12.64950425 11.75791433 -12.43778819 10.38472296 -9.9375 8.1875 C-9.298125 7.795625 -8.65875 7.40375 -8 7 C-12.16138263 6.91840426 -15.9472484 7.01751476 -20 8 C-15.43322133 4.49880302 -13.20029933 3.88038922 -7.375 3.9375 C-6.18648437 3.94652344 -4.99796875 3.95554688 -3.7734375 3.96484375 C-2.85820312 3.97644531 -1.94296875 3.98804688 -1 4 C-0.67 2.68 -0.34 1.36 0 0 Z " fill="#C8C3C1" transform="translate(132,199)"/>
  <path d="M0 0 C3.4375 0.9375 3.4375 0.9375 5.375 2 C7.12793126 5.19652171 6.95530725 8.38682174 6.4375 11.9375 C5.4375 13.9375 5.4375 13.9375 3.4375 14.9375 C0.34243248 15.33052445 -1.60698766 15.56658496 -4.5625 14.9375 C-7.125 12.8125 -7.125 12.8125 -8.5625 9.9375 C-8.5625 6.32790487 -7.93414354 4.49496532 -5.9375 1.5 C-3.5625 -0.0625 -3.5625 -0.0625 0 0 Z " fill="none" transform="translate(339.5625,214.0625)"/>
  <path d="M0 0 C0.99 0 1.98 0 3 0 C3 1.98 3 3.96 3 6 C4.175625 5.938125 5.35125 5.87625 6.5625 5.8125 C11.03960301 5.78855827 14.0241888 7.0120944 18 9 C16 10 16 10 14 10 C14.99 10.99 15.98 11.98 17 13 C13.27566618 11.7874262 9.62197194 10.49140021 6 9 C6.495 9.7425 6.99 10.485 7.5 11.25 C9 14 9 14 9 18 C8.34 18 7.68 18 7 18 C5.515 13.545 5.515 13.545 4 9 C-3.47806476 9.30731773 -7.28260192 10.15264076 -13 15 C-12.64950425 11.75791433 -12.43778819 10.38472296 -9.9375 8.1875 C-9.298125 7.795625 -8.65875 7.40375 -8 7 C-12.16138263 6.91840426 -15.9472484 7.01751476 -20 8 C-15.43322133 4.49880302 -13.20029933 3.88038922 -7.375 3.9375 C-6.18648437 3.94652344 -4.99796875 3.95554688 -3.7734375 3.96484375 C-2.85820312 3.97644531 -1.94296875 3.98804688 -1 4 C-0.67 2.68 -0.34 1.36 0 0 Z " fill="#5BD466" transform="translate(132,199)"/>
  <path d="M0 0 C3.61095021 -0.33590234 5.4381878 -0.38935719 8.46875 1.7109375 C13.64352428 6.39059449 17.3723544 11.60398901 18.65625 18.55078125 C18.95727396 25.55711401 18.26117444 30.26536173 13.5078125 35.546875 C13.01023438 36.02640625 12.51265625 36.5059375 12 37 C11.34 37.66 10.68 38.32 10 39 C9.01 38.67 8.02 38.34 7 38 C7.763125 37.46375 8.52625 36.9275 9.3125 36.375 C13.22059576 32.92133398 14.70254237 30.25472883 15.390625 25.0390625 C15.86027838 15.88082167 13.4952473 10.99862135 7.5 4.33203125 C5.28820296 2.3679094 2.80428494 1.81012676 0 1 C0 0.67 0 0.34 0 0 Z " fill="#D7D6D6" transform="translate(143,205)"/>
  <path d="M0 0 C0.33 0 0.66 0 1 0 C1.92409177 13.47120454 1.92409177 13.47120454 -2.5078125 19.41796875 C-6.37345967 23.51636431 -11.47891741 26.74393559 -17.18212891 27.15869141 C-19.72847913 27.19656098 -22.26637474 27.17436559 -24.8125 27.125 C-25.69615234 27.11597656 -26.57980469 27.10695312 -27.49023438 27.09765625 C-29.66027359 27.07419637 -31.83017247 27.03832865 -34 27 C-34 26.67 -34 26.34 -34 26 C-32.96101563 25.98582031 -31.92203125 25.97164062 -30.8515625 25.95703125 C-21.51676602 25.69371626 -13.72889571 24.93964167 -6.35546875 18.58203125 C-1.50910949 13.37254421 -0.83144021 6.79009505 0 0 Z " fill="#AC9B96" transform="translate(158,220)"/>
  <path d="M0 0 C-2 1 -2 1 -4 1 C-3.01 1.99 -2.02 2.98 -1 4 C-4.72433382 2.7874262 -8.37802806 1.49140021 -12 0 C-11.505 0.7425 -11.01 1.485 -10.5 2.25 C-9 5 -9 5 -9 9 C-9.66 9 -10.32 9 -11 9 C-11.99 6.03 -12.98 3.06 -14 0 C-16.97 0 -19.94 0 -23 0 C-23 -0.33 -23 -0.66 -23 -1 C-6.02602032 -3.56211014 -6.02602032 -3.56211014 0 0 Z " fill="#87B83E" transform="translate(150,208)"/>
  <path d="M0 0 C3.71137193 -0.3452439 5.51625962 -0.31499373 8.6875 1.75 C10.73921316 3.74626145 12.47021124 5.58454406 14 8 C14 8.66 14 9.32 14 10 C13.34 10 12.68 10 12 10 C10.703125 8.5390625 10.703125 8.5390625 9.25 6.625 C6.50480951 3.2780313 4.32199256 1.92614126 0 1 C0 0.67 0 0.34 0 0 Z " fill="#DADFD3" transform="translate(143,205)"/>
  <path d="M0 0 C1.66666667 1.66666667 3.33333333 3.33333333 5 5 C5.8971875 5.804375 5.8971875 5.804375 6.8125 6.625 C8 8 8 8 8 11 C7.34 11 6.68 11 6 11 C6 10.34 6 9.68 6 9 C5.34 9 4.68 9 4 9 C3.896875 8.360625 3.79375 7.72125 3.6875 7.0625 C3.460625 6.381875 3.23375 5.70125 3 5 C2.01 4.67 1.02 4.34 0 4 C0 2.68 0 1.36 0 0 Z " fill="#E6D4CE" transform="translate(104,232)"/>
  <path d="M0 0 C4.3890815 0.51035831 7.33708062 1.52214277 11 4 C10.67 4.66 10.34 5.32 10 6 C5.63526953 5.22058385 3.08353797 3.08353797 0 0 Z " fill="#D86819" transform="translate(142,207)"/>
  <path d="M0 0 C0.66 0 1.32 0 2 0 C4.42130331 3.63195496 4.21022785 5.38349348 4.125 9.6875 C4.10695312 10.86699219 4.08890625 12.04648438 4.0703125 13.26171875 C4.03550781 14.61716797 4.03550781 14.61716797 4 16 C3.67 16 3.34 16 3 16 C2.92652344 14.89591797 2.92652344 14.89591797 2.8515625 13.76953125 C2.77679688 12.79371094 2.70203125 11.81789062 2.625 10.8125 C2.55539063 9.84957031 2.48578125 8.88664063 2.4140625 7.89453125 C1.99784147 4.98491062 1.20125904 2.67109226 0 0 Z " fill="#C6BDBB" transform="translate(156,215)"/>
  <path d="M0 0 C1.32 0.33 2.64 0.66 4 1 C1.69 2.65 -0.62 4.3 -3 6 C-3.66 5.34 -4.32 4.68 -5 4 C-2.75 1.9375 -2.75 1.9375 0 0 Z " fill="#D45D0D" transform="translate(126,208)"/>
  <path d="M0 0 C1.875 0.25 1.875 0.25 4 1 C5.25 3.0625 5.25 3.0625 6 5 C4.02 5 2.04 5 0 5 C0 3.35 0 1.7 0 0 Z " fill="#C9D9CB" transform="translate(135,200)"/>
  <path d="M0 0 C0 3 0 3 -2.5 5.6875 C-3.325 6.450625 -4.15 7.21375 -5 8 C-4.64950425 4.75791433 -4.43778819 3.38472296 -1.9375 1.1875 C-1.298125 0.795625 -0.65875 0.40375 0 0 Z " fill="#64C847" transform="translate(124,206)"/>
  <path d="M0 0 C2.4375 0.375 2.4375 0.375 5 1 C5.33 1.66 5.66 2.32 6 3 C1.375 5.125 1.375 5.125 -2 4 C-1.34 4 -0.68 4 0 4 C0 2.68 0 1.36 0 0 Z " fill="#22D652" transform="translate(125,204)"/>
  <path d="M0 0 C0.99 0 1.98 0 3 0 C2.42415568 2.38564077 1.77772405 4.66682784 1 7 C-0.32 6.67 -1.64 6.34 -3 6 C-2.34 5.34 -1.68 4.68 -1 4 C-0.3574765 1.93125966 -0.3574765 1.93125966 0 0 Z " fill="#57D267" transform="translate(132,199)"/>
  <path d="M0 0 C-0.33 0.99 -0.66 1.98 -1 3 C-3.64 3.33 -6.28 3.66 -9 4 C-6.43425105 1.43425105 -3.68548192 0 0 0 Z " fill="#AE8F85" transform="translate(149,242)"/>
</svg>
